# 3ds Max Wavefront OBJ Exporter v0.97b - (c)2007 guruware
# File Created: 26.06.2017 00:07:16

mtllib CornerWall.mtl

#
# object Wall_Large
#

v  -98.4252 0.0000 9.8425
v  -98.4252 0.0000 -9.8425
v  77.6165 0.0000 -9.8425
v  77.6165 0.0000 9.8425
v  -98.4252 98.4252 9.8425
v  77.6165 98.4252 9.8425
v  77.6165 98.4252 -9.8425
v  -98.4252 98.4252 -9.8425
v  98.4252 0.0000 9.8425
v  98.4252 0.0000 -9.8425
v  98.4252 98.4252 -9.8425
v  98.4252 98.4252 9.8425
v  77.6165 0.0000 88.5827
v  98.4252 0.0000 88.5827
v  98.4252 98.4252 88.5827
v  77.6165 98.4252 88.5827
# 16 vertices

vn -0.5774 -0.5774 0.5774
vn -0.5774 -0.5774 -0.5774
vn 0.0000 -0.7071 -0.7071
vn -0.3015 -0.9045 0.3015
vn -0.5774 0.5774 0.5774
vn -0.3015 0.9045 0.3015
vn 0.0000 0.7071 -0.7071
vn -0.5774 0.5774 -0.5774
vn 0.7071 -0.7071 -0.0000
vn 0.5774 -0.5774 -0.5774
vn 0.5774 0.5774 -0.5774
vn 0.7071 0.7071 -0.0000
vn 0.5774 -0.5774 0.5774
vn 0.5774 0.5774 0.5774
# 14 vertex normals

vt 0.4423 0.6848 0.0000
vt 0.4423 0.6310 0.0000
vt 0.9232 0.6310 0.0000
vt 0.9232 0.6848 0.0000
vt 0.4423 0.2351 0.0000
vt 0.9232 0.2351 0.0000
vt 0.9232 0.2888 0.0000
vt 0.4423 0.2888 0.0000
vt 0.0380 0.6939 0.0000
vt 0.5188 0.6939 0.0000
vt 0.5188 0.9627 0.0000
vt 0.0380 0.9627 0.0000
vt 0.2530 0.3929 0.0000
vt 0.3068 0.3929 0.0000
vt 0.3068 0.6617 0.0000
vt 0.2530 0.6617 0.0000
vt 0.4423 0.3255 0.0000
vt 0.4991 0.3255 0.0000
vt 0.4991 0.5943 0.0000
vt 0.4423 0.5943 0.0000
vt 0.3390 0.0200 0.0000
vt 0.3927 0.0200 0.0000
vt 0.3927 0.2888 0.0000
vt 0.3390 0.2888 0.0000
vt 0.9800 0.6310 0.0000
vt 0.9800 0.6848 0.0000
vt 0.9800 0.2351 0.0000
vt 0.9800 0.2888 0.0000
vt 0.0200 0.0200 0.0000
vt 0.0768 0.0200 0.0000
vt 0.0768 0.2888 0.0000
vt 0.0200 0.2888 0.0000
vt 0.9800 0.3255 0.0000
vt 0.9800 0.5943 0.0000
vt 0.9800 0.8998 0.0000
vt 0.9232 0.8998 0.0000
vt 0.0380 0.6617 0.0000
vt 0.0380 0.3929 0.0000
vt 0.9232 0.0200 0.0000
vt 0.9800 0.0200 0.0000
vt 0.1009 0.2888 0.0000
vt 0.1009 0.0200 0.0000
vt 0.3159 0.0200 0.0000
vt 0.3159 0.2888 0.0000
# 44 texture coords

o Wall_Large
g Wall_Large
usemtl 09___Default
s 2
f 1/1/1 2/2/2 3/3/3 4/4/4 
s 4
f 5/5/5 6/6/6 7/7/7 8/8/8 
s 8
f 1/9/1 4/10/4 6/11/6 5/12/5 
s 16
f 9/13/9 10/14/10 11/15/11 12/16/12 
s 32
f 10/17/10 3/18/3 7/19/7 11/20/11 
s 64
f 2/21/2 1/22/1 5/23/5 8/24/8 
s 2
f 3/3/3 10/25/10 9/26/9 4/4/4 
s 4
f 6/6/6 12/27/12 11/28/11 7/7/7 
s 8
f 13/29/1 14/30/13 15/31/14 16/32/5 
s 32
f 3/18/3 2/33/2 8/34/8 7/19/7 
s off
f 4/4/4 9/26/9 14/35/13 13/36/1 
f 9/13/9 12/16/12 15/37/14 14/38/13 
f 12/27/12 6/6/6 16/39/5 15/40/14 
f 6/41/6 4/42/4 13/43/1 16/44/5 
# 14 polygons

